<?xml version="1.0" encoding="UTF-8" standalone="no"?>
<svg width="15px" height="13px" viewBox="0 0 15 13" version="1.1" xmlns="http://www.w3.org/2000/svg" xmlns:xlink="http://www.w3.org/1999/xlink" xmlns:sketch="http://www.bohemiancoding.com/sketch/ns">
    <!-- Generator: Sketch 3.3.3 (12081) - http://www.bohemiancoding.com/sketch -->
    <title>github</title>
    <desc>Created with Sketch.</desc>
    <defs></defs>
    <g id="Page-1" stroke="none" stroke-width="1" fill="none" fill-rule="evenodd" sketch:type="MSPage">
        <g id="Artboard-1" sketch:type="MSArtboardGroup" transform="translate(-79.000000, -18.000000)" fill="#000000">
            <path d="M92.7814258,21.1303959 C92.9022754,20.8342191 93.2996143,19.6399174 92.6560059,18.0263041 C92.6560059,18.0263041 91.6690674,17.7141166 89.4351807,19.2407475 C88.4995117,18.9834769 87.4942627,18.9450248 86.5,18.9450248 C85.5052832,18.9450248 84.5013965,18.9834769 83.5629883,19.2416557 C81.3295557,17.7141019 80.34354,18.0262894 80.34354,18.0262894 C79.7003711,19.6408256 80.0977246,20.8342191 80.2185742,21.1303959 C79.4614258,21.9488627 79,22.9934867 79,24.2747709 C79,29.0973002 82.1237793,30.1877006 86.4830664,30.1877006 C90.8441699,30.1877006 94,29.0973002 94,24.2747709 C94,22.9934867 93.5385742,21.9488627 92.7814258,21.1303959 L92.7814258,21.1303959 Z M86.5,29.264849 C83.4032324,29.264849 80.8928564,29.1201957 80.8928564,26.1200053 C80.8928564,25.40314 81.2453271,24.7343363 81.8500439,24.1818412 C82.857124,23.2594437 84.5641211,23.7469584 86.5000146,23.7469584 C88.4372705,23.7469584 90.1419824,23.2594437 91.1499854,24.1809184 C91.7551416,24.7343363 92.1085498,25.401309 92.1085498,26.1190824 C92.1085205,29.1201957 89.5963135,29.264849 86.5,29.264849 L86.5,29.264849 Z M84.1438867,24.5691166 C83.5217822,24.5691166 83.017334,25.3170951 83.017334,26.2417924 C83.017334,27.1664896 83.5217969,27.9162846 84.1438867,27.9162846 C84.7646143,27.9162846 85.2690625,27.1664603 85.2690625,26.2417924 C85.2690625,25.3171244 84.7646143,24.5691166 84.1438867,24.5691166 L84.1438867,24.5691166 Z M88.8565674,24.5691166 C88.2358398,24.5691166 87.7304688,25.3170951 87.7304688,26.2417777 C87.7304688,27.1664603 88.2358398,27.9162699 88.8565674,27.9162699 C89.4772949,27.9162699 89.9817432,27.1664457 89.9817432,26.2417777 C89.982666,25.3170951 89.4782031,24.5691166 88.8565674,24.5691166 L88.8565674,24.5691166 Z" id="github" sketch:type="MSShapeGroup"></path>
        </g>
    </g>
</svg>