<?xml version="1.0" encoding="UTF-8" standalone="no"?>
<svg width="248px" height="95px" viewBox="0 0 248 95" version="1.1" xmlns="http://www.w3.org/2000/svg" xmlns:xlink="http://www.w3.org/1999/xlink" xmlns:sketch="http://www.bohemiancoding.com/sketch/ns">
    <!-- Generator: Sketch 3.3.3 (12081) - http://www.bohemiancoding.com/sketch -->
    <title>LEDJAM + RADIO + Star 1 + Star 1 Copy</title>
    <desc>Created with Sketch.</desc>
    <defs></defs>
    <g id="Page-1" stroke="none" stroke-width="1" fill="none" fill-rule="evenodd" sketch:type="MSPage">
        <g id="Artboard-1" sketch:type="MSArtboardGroup" transform="translate(-176.000000, -90.000000)">
            <g id="LEDJAM-+-RADIO-+-Star-1-+-Star-1-Copy" sketch:type="MSLayerGroup" transform="translate(174.000000, 90.000000)">
                <g id="Star-1-+-Star-1-Copy" sketch:type="MSShapeGroup">
                    <polygon id="Star-1" fill="#000000" points="52.5 78.75 21.6412743 94.9733922 27.5347664 60.6116961 2.56953289 36.2766078 37.0706371 31.2633039 52.5 0 67.9293629 31.2633039 102.430467 36.2766078 77.4652336 60.6116961 83.3587257 94.9733922 "></polygon>
                    <polygon id="Star-1-Copy" fill="#DA241E" points="52.5 78.75 21.6412743 94.9733922 45.2265633 60.6116964 67.9293629 31.2633039 102.430467 36.2766078 77.4652336 60.6116961 83.3587257 94.9733922 "></polygon>
                </g>
                <path d="M122.356,48 L122.356,22.44 L129.376,22.44 L129.376,41.88 L140.968,41.88 L140.968,48 L122.356,48 Z M160.032,41.88 L160.032,48 L141.816,48 L141.816,22.44 L159.708,22.44 L159.708,28.56 L148.836,28.56 L148.836,32.16 L158.124,32.16 L158.124,37.848 L148.836,37.848 L148.836,41.88 L160.032,41.88 Z M161.708,48 L161.708,22.44 L171.536,22.44 C173.648011,22.44 175.507992,22.7759966 177.116,23.448 C178.724008,24.1200034 180.067995,25.0319942 181.148,26.184 C182.228005,27.3360058 183.043997,28.6859923 183.596,30.234 C184.148003,31.7820077 184.424,33.4319912 184.424,35.184 C184.424,37.1280097 184.118003,38.8859921 183.506,40.458 C182.893997,42.0300079 182.024006,43.3739944 180.896,44.49 C179.767994,45.6060056 178.412008,46.4699969 176.828,47.082 C175.243992,47.6940031 173.48001,48 171.536,48 L161.708,48 Z M177.296,35.184 C177.296,34.1999951 177.164001,33.3000041 176.9,32.484 C176.635999,31.6679959 176.258002,30.9720029 175.766,30.396 C175.273998,29.8199971 174.668004,29.3700016 173.948,29.046 C173.227996,28.7219984 172.424004,28.56 171.536,28.56 L168.728,28.56 L168.728,41.88 L171.536,41.88 C172.448005,41.88 173.263996,41.7120017 173.984,41.376 C174.704004,41.0399983 175.309998,40.572003 175.802,39.972 C176.294002,39.371997 176.665999,38.6640041 176.918,37.848 C177.170001,37.0319959 177.296,36.1440048 177.296,35.184 L177.296,35.184 Z M184.516,41.088 C184.588,41.1360002 184.743999,41.2199994 184.984,41.34 C185.224001,41.4600006 185.523998,41.5799994 185.884,41.7 C186.244002,41.8200006 186.657998,41.9279995 187.126,42.024 C187.594002,42.1200005 188.079997,42.168 188.584,42.168 C189.328004,42.168 189.927998,42.0480012 190.384,41.808 C190.840002,41.5679988 191.187999,41.1780027 191.428,40.638 C191.668001,40.0979973 191.824,39.4020043 191.896,38.55 C191.968,37.6979957 192.004,36.6600061 192.004,35.436 L192.004,22.44 L199.024,22.44 L199.024,35.436 C199.024,37.3800097 198.916001,39.149992 198.7,40.746 C198.483999,42.342008 198.016004,43.7039944 197.296,44.832 C196.575996,45.9600056 195.526007,46.8359969 194.146,47.46 C192.765993,48.0840031 190.912012,48.396 188.584,48.396 C186.423989,48.396 184.576008,47.8680053 183.04,46.812 L184.516,41.088 Z M207.504,22.44 L213.912,22.44 L222.768,48 L215.64,48 L214.092,42.996 L207.288,42.996 L205.776,48 L198.612,48 L207.504,22.44 Z M212.976,38.316 L210.708,30.396 L208.332,38.316 L212.976,38.316 Z M242.624,48 L242.624,34.536 L238.34,44.004 L234.596,44.004 L230.312,34.536 L230.312,48 L223.292,48 L223.292,22.44 L230.96,22.44 L236.468,34.464 L242.012,22.44 L249.644,22.44 L249.644,48 L242.624,48 Z" id="LEDJAM" fill="#DA241E" sketch:type="MSShapeGroup"></path>
                <path d="M122.676,80 L122.676,54.44 L134.412,54.44 C135.660006,54.44 136.811995,54.6979974 137.868,55.214 C138.924005,55.7300026 139.829996,56.4019959 140.586,57.23 C141.342004,58.0580041 141.935998,59.0059947 142.368,60.074 C142.800002,61.1420053 143.016,62.2159946 143.016,63.296 C143.016,64.7840074 142.692003,66.1699936 142.044,67.454 C141.395997,68.7380064 140.496006,69.7879959 139.344,70.604 L144.744,80 L136.824,80 L132.324,72.152 L129.696,72.152 L129.696,80 L122.676,80 Z M129.696,66.032 L134.124,66.032 C134.556002,66.032 134.957998,65.7920024 135.33,65.312 C135.702002,64.8319976 135.888,64.1600043 135.888,63.296 C135.888,62.4079956 135.672002,61.7300023 135.24,61.262 C134.807998,60.7939977 134.376002,60.56 133.944,60.56 L129.696,60.56 L129.696,66.032 Z M152,54.44 L158.408,54.44 L167.264,80 L160.136,80 L158.588,74.996 L151.784,74.996 L150.272,80 L143.108,80 L152,54.44 Z M157.472,70.316 L155.204,62.396 L152.828,70.316 L157.472,70.316 Z M167.788,80 L167.788,54.44 L177.616,54.44 C179.728011,54.44 181.587992,54.7759966 183.196,55.448 C184.804008,56.1200034 186.147995,57.0319942 187.228,58.184 C188.308005,59.3360058 189.123997,60.6859923 189.676,62.234 C190.228003,63.7820077 190.504,65.4319912 190.504,67.184 C190.504,69.1280097 190.198003,70.8859921 189.586,72.458 C188.973997,74.0300079 188.104006,75.3739944 186.976,76.49 C185.847994,77.6060056 184.492008,78.4699969 182.908,79.082 C181.323992,79.6940031 179.56001,80 177.616,80 L167.788,80 Z M183.376,67.184 C183.376,66.1999951 183.244001,65.3000041 182.98,64.484 C182.715999,63.6679959 182.338002,62.9720029 181.846,62.396 C181.353998,61.8199971 180.748004,61.3700016 180.028,61.046 C179.307996,60.7219984 178.504004,60.56 177.616,60.56 L174.808,60.56 L174.808,73.88 L177.616,73.88 C178.528005,73.88 179.343996,73.7120017 180.064,73.376 C180.784004,73.0399983 181.389998,72.572003 181.882,71.972 C182.374002,71.371997 182.745999,70.6640041 182.998,69.848 C183.250001,69.0319959 183.376,68.1440048 183.376,67.184 L183.376,67.184 Z M191.964,80 L191.964,54.44 L198.984,54.44 L198.984,80 L191.964,80 Z M213.296,80.216 C211.35199,80.216 209.588008,79.8440037 208.004,79.1 C206.419992,78.3559963 205.064006,77.3780061 203.936,76.166 C202.807994,74.9539939 201.932003,73.5680078 201.308,72.008 C200.683997,70.4479922 200.372,68.8400083 200.372,67.184 C200.372,65.5039916 200.695997,63.8840078 201.344,62.324 C201.992003,60.7639922 202.897994,59.3900059 204.062,58.202 C205.226006,57.0139941 206.605992,56.0660035 208.202,55.358 C209.798008,54.6499965 211.54399,54.296 213.44,54.296 C215.38401,54.296 217.147992,54.6679963 218.732,55.412 C220.316008,56.1560037 221.671994,57.1399939 222.8,58.364 C223.928006,59.5880061 224.797997,60.9799922 225.41,62.54 C226.022003,64.1000078 226.328,65.6959918 226.328,67.328 C226.328,69.0080084 226.004003,70.6219923 225.356,72.17 C224.707997,73.7180077 223.808006,75.0859941 222.656,76.274 C221.503994,77.4620059 220.130008,78.4159964 218.534,79.136 C216.937992,79.8560036 215.192009,80.216 213.296,80.216 L213.296,80.216 Z M207.5,67.256 C207.5,68.1200043 207.619999,68.953996 207.86,69.758 C208.100001,70.562004 208.459998,71.2759969 208.94,71.9 C209.420002,72.5240031 210.025996,73.0279981 210.758,73.412 C211.490004,73.7960019 212.359995,73.988 213.368,73.988 C214.376005,73.988 215.251996,73.790002 215.996,73.394 C216.740004,72.997998 217.345998,72.4820032 217.814,71.846 C218.282002,71.2099968 218.629999,70.4840041 218.858,69.668 C219.086001,68.8519959 219.2,68.0240042 219.2,67.184 C219.2,66.3199957 219.080001,65.486004 218.84,64.682 C218.599999,63.877996 218.234002,63.1700031 217.742,62.558 C217.249998,61.9459969 216.638004,61.4540019 215.906,61.082 C215.173996,60.7099981 214.316005,60.524 213.332,60.524 C212.323995,60.524 211.454004,60.7159981 210.722,61.1 C209.989996,61.4840019 209.384002,61.9939968 208.904,62.63 C208.423998,63.2660032 208.070001,63.985996 207.842,64.79 C207.613999,65.594004 207.5,66.4159958 207.5,67.256 L207.5,67.256 Z" id="RADIO" fill="#000000" sketch:type="MSShapeGroup"></path>
            </g>
        </g>
    </g>
</svg>