<?xml version="1.0" encoding="UTF-8" standalone="no"?>
<svg width="48px" height="48px" viewBox="0 0 48 48" version="1.1" xmlns="http://www.w3.org/2000/svg" xmlns:xlink="http://www.w3.org/1999/xlink" xmlns:sketch="http://www.bohemiancoding.com/sketch/ns">
    <!-- Generator: Sketch 3.3.3 (12081) - http://www.bohemiancoding.com/sketch -->
    <title>mute</title>
    <desc>Created with Sketch.</desc>
    <defs></defs>
    <g id="Page-1" stroke="none" stroke-width="1" fill="none" fill-rule="evenodd" sketch:type="MSPage">
        <g id="Artboard-1" sketch:type="MSArtboardGroup" transform="translate(-70.000000, -65.000000)">
            <g id="mute" sketch:type="MSLayerGroup" transform="translate(70.000000, 64.000000)">
                <g id="Group" fill="#DA241E" sketch:type="MSShapeGroup">
                    <path d="M15.163,34.18 L7.933,34.18 C3.559,34.18 0,30.974 0,27.032 L0,22.967 C0,19.026 3.559,15.82 7.933,15.82 L15.163,15.82 C15.715,15.82 16.163,16.268 16.163,16.82 L16.163,33.18 C16.163,33.732 15.715,34.18 15.163,34.18 L15.163,34.18 Z M7.933,17.82 C4.662,17.82 2,20.129 2,22.967 L2,27.032 C2,29.87 4.662,32.179 7.933,32.179 L14.163,32.179 L14.163,17.82 L7.933,17.82 L7.933,17.82 Z" id="Shape"></path>
                    <path d="M34.157,49.003 C33.081,49.003 31.893,48.523 30.694,47.584 L14.532,34.42 C14.104,34.071 14.039,33.441 14.388,33.013 C14.737,32.586 15.368,32.521 15.795,32.869 L31.943,46.021 C33.047,46.885 34.072,47.203 34.729,46.876 C35.397,46.551 35.78,45.542 35.78,44.108 L35.78,5.89 C35.78,4.456 35.397,3.448 34.729,3.122 C34.069,2.799 33.045,3.116 31.927,3.99 L15.794,17.132 C15.367,17.481 14.736,17.417 14.387,16.988 C14.038,16.56 14.103,15.93 14.531,15.581 L30.679,2.428 C32.464,1.031 34.209,0.644 35.605,1.325 C37.007,2.008 37.78,3.63 37.78,5.89 L37.78,44.109 C37.78,46.37 37.008,47.992 35.605,48.675 C35.154,48.895 34.669,49.003 34.157,49.003 L34.157,49.003 Z" id="Shape"></path>
                    <path d="M36.779,35.063 C36.226,35.063 35.779,34.616 35.779,34.063 C35.779,33.51 36.226,33.063 36.779,33.063 C41.863,33.063 46,29.445 46,25 C46,20.554 41.863,16.937 36.779,16.937 C36.226,16.937 35.779,16.489 35.779,15.937 C35.779,15.385 36.226,14.937 36.779,14.937 C42.967,14.937 48,19.451 48,25 C48,30.549 42.967,35.063 36.779,35.063 L36.779,35.063 Z" id="Shape"></path>
                </g>
                <path d="M1.641,48.359 C1.385,48.359 1.129,48.261 0.934,48.066 C0.543,47.675 0.543,47.043 0.934,46.652 L45.652,1.933 C46.043,1.542 46.675,1.542 47.066,1.933 C47.457,2.324 47.457,2.956 47.066,3.347 L2.348,48.066 C2.153,48.262 1.897,48.359 1.641,48.359 L1.641,48.359 Z" id="Shape" fill="#000000" sketch:type="MSShapeGroup"></path>
            </g>
        </g>
    </g>
</svg>