<?xml version="1.0" encoding="UTF-8" standalone="no"?>
<svg width="48px" height="48px" viewBox="0 0 48 48" version="1.1" xmlns="http://www.w3.org/2000/svg" xmlns:xlink="http://www.w3.org/1999/xlink" xmlns:sketch="http://www.bohemiancoding.com/sketch/ns">
    <!-- Generator: Sketch 3.3.3 (12081) - http://www.bohemiancoding.com/sketch -->
    <title>play</title>
    <desc>Created with Sketch.</desc>
    <defs></defs>
    <g id="Page-1" stroke="none" stroke-width="1" fill="none" fill-rule="evenodd" sketch:type="MSPage">
        <g id="Artboard-1" sketch:type="MSArtboardGroup" transform="translate(-70.000000, -126.000000)">
            <g id="play" sketch:type="MSLayerGroup" transform="translate(70.000000, 126.000000)">
                <g id="Group" fill="#DA241E" sketch:type="MSShapeGroup">
                    <path d="M12.993,33.18 L7.312,33.18 C3.757,33.18 0.865,29.973 0.865,26.032 L0.865,21.967 C0.865,18.027 3.757,14.821 7.312,14.821 L12.993,14.821 C13.545,14.821 13.993,15.269 13.993,15.821 L13.993,32.181 C13.993,32.732 13.545,33.18 12.993,33.18 L12.993,33.18 Z M7.312,16.82 C4.86,16.82 2.865,19.129 2.865,21.966 L2.865,26.031 C2.865,28.87 4.86,31.179 7.312,31.179 L11.993,31.179 L11.993,16.82 L7.312,16.82 L7.312,16.82 Z" id="Shape"></path>
                    <path d="M27.918,47.998 C27.167,47.998 26.153,47.681 24.974,46.505 L12.272,33.339 C11.889,32.942 11.9,32.309 12.297,31.925 C12.695,31.542 13.328,31.554 13.711,31.95 L26.399,45.102 C27.215,45.916 27.825,46.086 28.11,45.963 C28.542,45.783 28.976,44.832 28.976,43.109 L28.976,4.89 C28.976,3.167 28.541,2.215 28.11,2.036 C27.821,1.914 27.215,2.083 26.385,2.911 L13.711,16.051 C13.328,16.449 12.695,16.46 12.297,16.076 C11.9,15.693 11.888,15.059 12.272,14.662 L24.96,1.509 C26.776,-0.302 28.192,-0.096 28.877,0.189 C30.231,0.751 30.977,2.42 30.977,4.89 L30.977,43.109 C30.977,45.579 30.232,47.248 28.878,47.81 C28.641,47.909 28.316,47.998 27.918,47.998 L27.918,47.998 Z" id="Shape"></path>
                    <path d="M29.977,34.063 C29.424,34.063 28.977,33.616 28.977,33.063 C28.977,32.51 29.424,32.063 29.977,32.063 C33.854,32.063 37.008,28.446 37.008,24 C37.008,19.554 33.854,15.937 29.977,15.937 C29.424,15.937 28.977,15.489 28.977,14.937 C28.977,14.385 29.424,13.937 29.977,13.937 C34.956,13.937 39.008,18.451 39.008,24 C39.008,29.549 34.956,34.063 29.977,34.063 L29.977,34.063 Z" id="Shape"></path>
                </g>
                <g id="Group" transform="translate(35.000000, 5.000000)" fill="#000000" sketch:type="MSShapeGroup">
                    <path d="M11.136,30.136 C10.99,30.136 10.843,30.105 10.703,30.036 L5.06,27.317 C4.562,27.078 4.353,26.48 4.592,25.983 C4.832,25.485 5.431,25.274 5.927,25.516 L11.57,28.235 C12.068,28.474 12.277,29.072 12.038,29.569 C11.865,29.928 11.508,30.136 11.136,30.136 L11.136,30.136 Z" id="Shape"></path>
                    <path d="M3.827,37.314 C3.44,37.314 3.071,37.087 2.909,36.71 L0.431,30.958 C0.212,30.451 0.447,29.862 0.953,29.645 C1.458,29.427 2.049,29.661 2.266,30.167 L4.744,35.919 C4.963,36.426 4.728,37.015 4.222,37.232 C4.094,37.288 3.96,37.314 3.827,37.314 L3.827,37.314 Z" id="Shape"></path>
                    <g id="Shape">
                        <path d="M5.495,12.583 C5.123,12.583 4.766,12.375 4.593,12.017 C4.354,11.519 4.563,10.922 5.061,10.682 L10.704,7.963 C11.202,7.725 11.799,7.933 12.039,8.43 C12.278,8.928 12.069,9.525 11.571,9.765 L5.928,12.484 C5.788,12.551 5.641,12.583 5.495,12.583 L5.495,12.583 Z"></path>
                        <path d="M1.35,8.438 C1.217,8.438 1.083,8.412 0.954,8.356 C0.446,8.137 0.213,7.549 0.432,7.042 L2.91,1.291 C3.128,0.782 3.719,0.55 4.223,0.768 C4.731,0.987 4.964,1.575 4.745,2.082 L2.267,7.833 C2.105,8.211 1.736,8.438 1.35,8.438 L1.35,8.438 Z"></path>
                    </g>
                </g>
            </g>
        </g>
    </g>
</svg>